<?xml version="1.0" standalone="no"?>
<!DOCTYPE svg PUBLIC "-//W3C//DTD SVG 20010904//EN"
 "http://www.w3.org/TR/2001/REC-SVG-20010904/DTD/svg10.dtd">
<svg version="1.0" xmlns="http://www.w3.org/2000/svg"
 width="128.000000pt" height="128.000000pt" viewBox="0 0 128.000000 128.000000"
 preserveAspectRatio="xMidYMid meet">

<g transform="translate(0.000000,128.000000) scale(0.100000,-0.100000)"
fill="#ffff" stroke="none">
<path d="M518 1265 c-82 -21 -173 -69 -231 -123 -55 -51 -107 -126 -107 -153
0 -19 177 -159 201 -159 8 0 44 31 80 69 83 87 133 105 223 80 58 -16 96 -58
96 -107 0 -50 -24 -77 -116 -128 -115 -64 -189 -155 -194 -239 -8 -119 0 -125
143 -125 148 0 153 2 172 59 23 69 38 86 131 147 142 94 179 154 179 289 0 76
-4 98 -26 146 -48 102 -149 189 -267 230 -75 27 -209 33 -284 14z"/>
<path d="M479 303 c-17 -19 -14 -270 3 -290 13 -16 265 -18 288 -3 12 7 15 36
15 150 0 114 -3 143 -15 150 -8 5 -74 10 -146 10 -110 0 -134 -3 -145 -17z"/>
</g>
</svg>
