<?xml version="1.0" standalone="no"?>
<!DOCTYPE svg PUBLIC "-//W3C//DTD SVG 20010904//EN"
 "http://www.w3.org/TR/2001/REC-SVG-20010904/DTD/svg10.dtd">
<svg version="1.0" xmlns="http://www.w3.org/2000/svg"
 width="64.000000pt" height="64.000000pt" viewBox="0 0 100.000000 100.000000"
 preserveAspectRatio="xMidYMid meet">

<g transform="translate(0.000000,100.000000) scale(0.100000,-0.100000)"
fill="#ffff" stroke="none">
<path d="M47 952 c-15 -16 -17 -45 -17 -204 0 -166 2 -187 18 -201 16 -15 45
-17 204 -17 166 0 187 2 201 18 15 16 17 45 17 204 0 166 -2 187 -18 201 -16
15 -45 17 -204 17 -166 0 -187 -2 -201 -18z"/>
<path d="M547 952 c-15 -16 -17 -45 -17 -204 0 -166 2 -187 18 -201 16 -15 45
-17 204 -17 166 0 187 2 201 18 15 16 17 45 17 204 0 166 -2 187 -18 201 -16
15 -45 17 -204 17 -166 0 -187 -2 -201 -18z"/>
<path d="M47 452 c-15 -16 -17 -45 -17 -204 0 -166 2 -187 18 -201 16 -15 45
-17 204 -17 166 0 187 2 201 18 15 16 17 45 17 204 0 166 -2 187 -18 201 -16
15 -45 17 -204 17 -166 0 -187 -2 -201 -18z"/>
<path d="M547 452 c-15 -16 -17 -45 -17 -204 0 -166 2 -187 18 -201 16 -15 45
-17 204 -17 166 0 187 2 201 18 15 16 17 45 17 204 0 166 -2 187 -18 201 -16
15 -45 17 -204 17 -166 0 -187 -2 -201 -18z"/>
</g>
</svg>
