<?xml version="1.0" standalone="no"?>
<!DOCTYPE svg PUBLIC "-//W3C//DTD SVG 20010904//EN"
 "http://www.w3.org/TR/2001/REC-SVG-20010904/DTD/svg10.dtd">
<svg version="1.0" xmlns="http://www.w3.org/2000/svg"
 width="52.000000pt" height="52.000000pt" viewBox="0 0 52.000000 52.000000"
 preserveAspectRatio="xMidYMid meet">

<g transform="translate(0.000000,52.000000) scale(0.100000,-0.100000)"
fill="#ffff" stroke="none">
<path d="M102 417 c-12 -13 -22 -27 -22 -32 0 -5 26 -35 57 -67 l57 -58 -57
-58 c-31 -32 -57 -62 -57 -68 0 -13 42 -54 55 -54 5 0 35 26 67 57 l58 57 58
-57 c32 -31 62 -57 68 -57 13 0 54 42 54 55 0 5 -26 35 -57 67 l-57 58 57 58
c31 32 57 62 57 68 0 13 -42 54 -55 54 -5 0 -35 -26 -67 -57 l-58 -57 -58 57
c-32 31 -62 57 -68 57 -6 0 -20 -10 -32 -23z"/>
</g>
</svg>
