<svg xmlns:dc="http://purl.org/dc/elements/1.1/"
    xmlns:cc="http://creativecommons.org/ns#"
    xmlns:rdf="http://www.w3.org/1999/02/22-rdf-syntax-ns#"
    xmlns:svg="http://www.w3.org/2000/svg"
    xmlns="http://www.w3.org/2000/svg"
    xmlns:sodipodi="http://sodipodi.sourceforge.net/DTD/sodipodi-0.dtd"
    xmlns:inkscape="http://www.inkscape.org/namespaces/inkscape" version="1.1" viewBox="0 0 8.4666665 10.583333625" x="0px" y="0px">
    <g fill="#ffff">
        <path style="color:#ffff;font-variant-ligatures:normal;font-variant-position:normal;font-variant-caps:normal;font-variant-numeric:normal;font-variant-alternates:normal;font-variant-east-asian:normal;font-feature-settings:normal;font-variation-settings:normal;text-indent:0;text-decoration-line:none;text-decoration-style:solid;text-decoration-color:#ffff;text-transform:none;direction:ltr;text-orientation:mixed;dominant-baseline:auto;baseline-shift:baseline;white-space:normal;shape-padding:0;shape-margin:0;inline-size:0;isolation:auto;mix-blend-mode:normal;color-interpolation:sRGB;color-interpolation-filters:linearRGB;solid-color:#ffff;solid-opacity:1;vector-effect:none;color-rendering:auto;image-rendering:auto;shape-rendering:auto;enable-background:accumulate;" d="m 2.3065772,0.5705078 c -0.469247,0 -0.8638101,0.32318405 -0.9823691,0.756543 H 0.7950414 A 0.26458603,0.26457948 0 0 0 0.5294246,1.5926676 0.26458603,0.26457948 0 0 0 0.7950414,1.8562174 h 0.5281332 c 0.1177539,0.434552 0.5133036,0.7591269 0.9834026,0.7591269 0.4653589,0 0.8576151,-0.3182908 0.9797852,-0.7462078 l 4.3868123,-0.012919 a 0.26458603,0.26457948 0 0 0 0.2640674,-0.2651 0.26458603,0.26457948 0 0 0 -0.2640674,-0.2640666 l -4.3795775,0.01292 C 3.1795951,0.89995744 2.7805782,0.57050833 2.3065772,0.5705078 Z m 0,0.5291667 c 0.27569,0 0.4935098,0.2173113 0.4935098,0.4929931 0,0.2756831 -0.2178198,0.4935101 -0.4935098,0.4935101 -0.275689,0 -0.4929931,-0.217827 -0.4929931,-0.4935101 0,-0.2756818 0.2173041,-0.4929931 0.4929931,-0.4929931 z m 2.826701,2.0277833 c -0.4770102,0 -0.8784394,0.3289258 -0.9968386,0.7699788 H 0.7950414 A 0.26458603,0.26457948 0 0 0 0.5294246,4.1615032 0.26458603,0.26457948 0 0 0 0.7950414,4.4266033 h 3.3419152 c 0.1187799,0.4409249 0.5197115,0.7704955 0.9963216,0.7704955 0.4766096,0 0.8775406,-0.3295706 0.9963227,-0.7704955 H 7.6731747 A 0.26458603,0.26457948 0 0 0 7.9372421,4.1615032 0.26458603,0.26457948 0 0 0 7.6731747,3.8974366 H 6.1301168 C 6.0117184,3.4563836 5.6102873,3.1274578 5.1332782,3.1274578 Z m 0,0.5291667 c 0.2827837,0 0.5064281,0.2221008 0.5064281,0.5048787 0,0.2827779 -0.2236444,0.5064289 -0.5064281,0.5064289 -0.2827851,0 -0.5064292,-0.223651 -0.5064292,-0.5064289 0,-0.2827779 0.2236441,-0.5048787 0.5064292,-0.5048787 z m -2.0562055,2.168343 c -0.476454,0 -0.8779092,0.3292729 -0.9968384,0.7699787 H 0.7950414 A 0.26458603,0.26457948 0 0 0 0.5294246,6.8605633 0.26458603,0.26457948 0 0 0 0.7950414,7.1241129 h 1.2846762 c 0.1181719,0.4418161 0.5201071,0.772046 0.9973551,0.772046 0.4772333,0 0.8786525,-0.3302508 0.9968384,-0.772046 H 7.6731747 A 0.26458603,0.26457948 0 0 0 7.9372421,6.8605633 0.26458603,0.26457948 0 0 0 7.6731747,6.5949462 H 4.0733944 C 3.9544494,6.1542634 3.5535109,5.8249675 3.0770727,5.8249675 Z m 0,0.5291666 c 0.2827852,0 0.5064292,0.223651 0.5064292,0.5064292 0,0.2827779 -0.223644,0.5064289 -0.5064292,0.5064289 -0.2827848,0 -0.5064289,-0.223651 -0.5064289,-0.5064289 0,-0.2827782 0.2236441,-0.5064292 0.5064289,-0.5064292 z" clip-rule="nonzero" display="inline" overflow="visible" visibility="visible" fill="#ffff" fill-opacity="1" fill-rule="nonzero" stroke="none" stop-color="#000000"/>
    </g>
</svg>