<?xml version="1.0" encoding="utf-8" ?>
<svg xmlns="http://www.w3.org/2000/svg" fill="#20222F" xmlns:xlink="http://www.w3.org/1999/xlink" width="1024" height="1024">
	<path transform="scale(2 2)" d="M367.709 441.636L134.998 441.656C118.484 441.677 108.223 437.009 108.199 418.961L108.201 99.6896C108.207 70.3296 117.136 69.3006 144.127 69.3611L290.947 69.3553C326.127 69.3579 315.015 67.6782 340.185 92.4902L399.136 151.682C404.921 157.388 404.14 157.513 404.189 165.497L404.195 412.358C404.179 439.976 392.311 441.702 367.709 441.636ZM139.936 82.9557C116.976 82.8283 121.963 86.9072 121.96 109.534L121.951 405.992C121.939 413.853 118.812 426.982 129.091 427.662C137.787 428.237 147.282 427.758 156.054 427.758L372.893 427.765C391.123 427.694 390.419 426.717 390.421 409.189L390.414 166.081L349.907 166.088C333.539 166.086 312.262 169.628 307.307 148.328C306.026 142.818 306.723 131.41 306.727 125.384L306.721 82.9557L139.936 82.9557ZM320.318 92.0995L320.328 127.884C320.328 155.097 320.128 152.532 344.798 152.514L380.256 152.515C375.744 148.109 371.459 143.515 367.013 139.051L335.821 107.798C332.652 104.587 323.429 94.189 320.318 92.0995Z"/>
	<path transform="scale(2 2)" d="M248.433 241.323C251.844 213.372 270.043 207.319 293.877 207.365L305.204 207.322C310.587 207.293 318.931 207.28 317.133 215.251C314.172 228.377 267.633 203.932 260.626 241.323C279.495 241.588 298.386 241.02 317.253 241.339C328.472 241.529 337.16 243.649 345.207 252.088C357.84 265.335 354.706 282.409 354.717 299.295C354.723 308.472 355.012 317.725 354.723 326.894C353.955 351.33 324.272 366.314 303.424 354.33C296.883 350.571 278.527 331.589 272.148 324.577C264.007 323.854 248.132 324.168 239.907 324.577L239.652 324.848C233.549 331.275 215.667 350.391 209.061 354.436C186.613 368.182 157.187 350.476 156.851 324.884C156.692 312.773 155.554 278.048 157.811 268.191C164.228 240.174 187.627 241.328 209.389 241.334L248.433 241.323ZM190.78 253.272C171.553 255.269 169.21 268.025 169.227 283.361L169.234 317.557C169.226 320.71 169.068 323.942 169.39 327.081C171.015 342.928 189.983 352.155 203.479 343.424C211.747 338.075 230.279 314.779 235.778 312.947C238.949 311.89 256.859 312.562 261.227 312.536C277.919 312.434 274.896 310.823 285.963 321.813L299.268 334.88C305.534 341.074 310.313 346.579 319.785 346.522C346.137 346.365 342.582 321.753 342.55 304.274C342.518 287.041 347.889 257.531 324.584 253.804C319.032 252.916 313.056 253.262 307.442 253.262L190.78 253.272Z"/>
	<path transform="scale(2 2)" d="M309.174 284.674C296.907 287.084 293.424 269.052 306.002 266.297C318.591 265.532 321.368 281.364 309.174 284.674Z"/>
	<path transform="scale(2 2)" d="M197.865 286.461C198.05 280.415 195.648 272.786 202.507 269.785C212.556 268.631 210.484 279.767 210.435 286.461C214.565 286.418 221.438 285.448 224.664 288.295C227.18 290.515 226.382 294.711 224.196 296.88C221.505 299.549 214.148 298.592 210.435 298.66C210.46 304.408 211.999 312.106 205.135 314.255C196.267 314.705 197.81 304.699 197.865 298.66C193.697 298.646 186.838 299.755 183.631 296.625C181.323 294.373 181.374 290.581 183.691 288.357C186.822 285.352 193.793 286.427 197.865 286.461Z"/>
	<path transform="scale(2 2)" d="M292.359 301.689C280.037 302.74 277.382 285.597 289.972 282.803C302.71 281.752 303.775 297.906 292.359 301.689Z"/>
	<path transform="scale(2 2)" d="M324.752 301.689C312.035 301.638 309.886 285.415 322.5 282.803C333.503 281.785 337.822 297.561 324.752 301.689Z"/>
	<path transform="scale(2 2)" d="M307.673 317.42C295.24 316.452 294.457 301.048 307.673 298.66C320.37 301.515 319.289 315.88 307.673 317.42Z"/>
</svg>
