<?xml version="1.0"?>
<svg width="765" height="728" xmlns="http://www.w3.org/2000/svg" xmlns:svg="http://www.w3.org/2000/svg">
 <g class="layer">
  <title>Layer 1</title>
  <path d="m519.43,291.43l3.27,-0.19c2.05,0.01 2.65,0.33 4.08,1.79c-0.17,0.86 -1.85,0.8 -2.72,0.98c-8.17,1.63 -15.51,4.04 -22.29,8.99l-3,2.36c-1.13,0.03 -1.1,-0.03 -1.98,-0.75l0.18,-1.49c4.92,-7.34 14.34,-9.99 22.46,-11.69z" fill="#BACCCD" id="svg_2"/>
  <path d="m234.45,311.09c2.03,2.64 4.12,4.9 7.15,6.4l0.3,0.15c-1.49,4.38 -2.71,8.09 -5.67,11.7c-0.95,0.87 -1.77,1.4 -2.96,1.91c-1.21,-0.04 -1.6,-0.13 -2.56,-0.87c-1.76,-3.43 0.69,-8.72 1.78,-12.2l1.96,-7.09z" fill="#BACCCD" id="svg_3"/>
  <path d="m268.23,242.65c0.78,0.35 1.08,1.11 1.54,1.82c1.3,2.01 2.61,3.22 4.45,4.71c-4.18,4.22 -8.32,8.24 -13.59,11.09c-0.62,0.28 -1.29,0.59 -1.96,0.71c-1.23,0.23 -2.19,0.23 -3.22,-0.45l-0.04,-0.58c-0.09,-4.64 9.9,-13.98 12.82,-17.3z" fill="#BACCCD" id="svg_4"/>
  <path d="m279.85,253.43c2.32,1.55 4.4,3.5 6.51,5.31c-4.34,4.41 -7.05,9.34 -12.58,12.49c-0.82,0.18 -1.75,0.39 -2.59,0.3c-1.28,-0.14 -2.28,-0.75 -3.13,-1.66c-0.33,-1.94 0.5,-2.93 1.57,-4.47c2.88,-4.17 7.65,-7.37 10.04,-11.63l0.18,-0.34z" fill="#BACCCD" id="svg_5"/>
  <path d="m246.18,272.89c1.8,3.11 3.82,5.49 6.54,7.82c-2.37,5.48 -4.97,11.14 -9.21,15.42l-0.9,0.63c-0.84,0.53 -1.43,0.96 -2.43,0.55c-0.43,-0.18 -1.11,-0.8 -1.26,-1.2c-0.54,-1.45 -0.46,-2.73 -0.11,-4.22c1.49,-6.27 4.83,-13.02 7.37,-19z" fill="#BACCCD" id="svg_6"/>
  <path d="m516.08,278.35c0.49,0.07 0.29,-0.01 0.74,0.27c0.57,0.36 0.62,1.43 0.78,2.08c-0.14,0.22 -0.23,0.5 -0.44,0.65c-0.46,0.33 -2,0.63 -2.62,0.83l-8.54,3.03c-2.35,0.92 -4.57,2.14 -6.78,3.36c-8.16,4.52 -15,10.89 -21.2,17.78l-0.64,0.5l-0.44,-0.37c-0.07,-1.7 0.79,-3.17 1.69,-4.55c8.32,-12.79 22.75,-20.71 37.45,-23.58z" fill="#BACCCD" id="svg_7"/>
  <path d="m259.63,284.71c2.47,1.95 4.8,3.51 7.66,4.83c-2.01,6.17 -2.85,12.1 -7.59,16.9c-1.52,1.03 -2.72,1.53 -4.57,1.64c-0.48,-0.22 -0.86,-0.24 -1.08,-0.73c-0.82,-1.88 -0.61,-3.64 -0.22,-5.61c1.15,-5.82 3.68,-11.5 5.8,-17.03z" fill="#BACCCD" id="svg_8"/>
  <path d="m227.95,347.57c3.36,0.82 5.73,0.84 9.15,0.28c0.01,4.23 0.66,8.46 0.44,12.68c-0.22,4.41 -1.72,8.69 -3.64,12.61l-2.59,4.32c-1.11,-4.13 -2.4,-8.39 -2.96,-12.63c-0.74,-5.68 -0.44,-11.54 -0.4,-17.26z" fill="#BACCCD" id="svg_9"/>
  <path d="m318.08,218.29l0.99,0.16l0.01,0.48c-7.89,4.19 -14.76,12.31 -23.41,14.83c-1.86,0.54 -3.81,0.54 -5.73,0.56l-0.38,-0.26c-0.57,-0.44 -1.41,-1.34 -1.5,-2.09c-0.18,-1.53 0.01,-2.25 0.98,-3.45c6.36,-7.82 19.7,-9.48 29.04,-10.23z" fill="#BACCCD" id="svg_10"/>
  <path d="m413.29,199.98l2.27,-0.07c5.06,0.12 10.85,4.59 14.16,8.05c-3.4,1.73 -7.08,2.77 -10.78,3.61l-0.14,0.02c-4.51,0.51 -7.03,1.11 -10.72,-1.87c-2.45,-1.97 -4.55,-3.35 -4.9,-6.71c2.46,-2.32 6.87,-2.64 10.11,-3.03z" fill="#E2F1F8" id="svg_11"/>
  <path d="m250.35,323.21c2.81,1.85 5.31,3.05 8.54,3.99c-0.55,7.13 0.01,15.56 -4.22,21.63c-0.76,0.77 -1.89,1.82 -2.92,2.18c-0.77,0.26 -0.94,0.19 -1.63,-0.13c-1.14,-1.72 -1.4,-3.69 -1.68,-5.7c-1.04,-7.46 0.54,-14.67 1.91,-21.97z" fill="#BACCCD" id="svg_12"/>
  <path d="m551.61,202.98c1.89,-0.23 4.21,-0.37 6,0.37c2.14,0.89 3.55,2.7 4.41,4.8c1.02,2.47 1.17,4.04 0.09,6.53c-1.31,3.03 -3.26,4.72 -6.27,5.87c-1.51,0.14 -3.01,0.33 -4.5,-0.1c-2.8,-0.81 -4.76,-2.94 -6.05,-5.48c-0.98,-1.91 -0.9,-4.43 -0.1,-6.39c1.23,-3.01 3.56,-4.46 6.42,-5.6z" fill="#BACCCD" id="svg_13"/>
  <path d="m212.42,178.23c2.01,-0.04 3.64,0.05 5.54,0.87c2.56,1.09 4.43,3.28 5.38,5.88c0.85,2.35 0.66,4.8 -0.44,7.03c-1.56,3.17 -3.98,4.36 -7.14,5.48c-2.31,0.19 -4.04,0.16 -6.16,-0.98c-2.18,-1.16 -4.24,-3.83 -4.94,-6.19c-0.74,-2.51 -0.19,-5.32 1.16,-7.54c1.64,-2.69 3.62,-3.8 6.6,-4.55z" fill="#BACCCD" id="svg_14"/>
  <path d="m246.19,364.34c3.21,2.77 6.68,3.94 10.77,4.79c1.73,13.99 5.99,26.88 11.54,39.76c-2.56,-1.1 -4.86,-2.38 -6.98,-4.22c-12.28,-10.67 -14.27,-25.13 -15.33,-40.33z" fill="#BACCCD" id="svg_15"/>
  <path d="m171.55,411.26c0.44,0.23 0.25,0.08 0.62,0.57c2.04,2.77 4.07,5.06 6.96,6.98c8.17,5.43 17.16,7.42 26.77,5.54c2.05,5.92 4.87,11.24 7.86,16.72l-11.58,0.02l-3.18,-0.19l-2.6,-0.26c-11.66,-1.39 -23.5,-5.11 -32.65,-12.7c-3.35,-2.77 -6.09,-5.98 -8.77,-9.39c1.57,-0.53 3.29,-0.56 4.89,-1.01c4.25,-1.21 8.23,-3.57 11.68,-6.28z" fill="#BACCCD" id="svg_16"/>
  <path d="m380.39,581.17l5.16,7.1c6.97,8.83 15.38,12.44 26.27,13.73c-1.03,1.72 -2.13,3.4 -3.52,4.86c-3.7,3.92 -8.54,5.64 -13.87,5.75c-5.02,0.1 -8.73,-2.86 -12.18,-6.17l-1.24,-1.3c-1.04,0.3 -2.8,3.32 -3.83,4.21c-3.11,2.65 -7.7,3.3 -11.68,2.83c-6.27,-0.75 -10.27,-5.1 -13.95,-9.79c12.29,-3.92 22.12,-9.96 28.84,-21.22z" fill="#BACCCD" id="svg_17"/>
  <path d="m460.57,221.7c2.72,1.2 7.91,8.52 9.87,11.22c2.2,-3.93 4.71,-7.61 7.62,-11.05l-7.47,26.61l-11.47,-9.64l-11.46,20.63l-9.3,-15.58l-0.36,0l-4.08,4.6c-1.09,1.19 -2.16,2.07 -3.5,2.98c-2.31,-0.51 -5.15,-3.05 -7.39,-4.19l-17.8,-8.18l15.57,-7.93l7.33,9.34c3.47,-5.45 8.15,-9.84 11.46,-15.36l8.93,12.32c1.78,-2.55 3.27,-5.3 5.11,-7.79c2.04,-2.78 4.67,-5.37 6.94,-7.98z" fill="#BACCCD" id="svg_18"/>
  <path d="m565.35,481.17c3.76,3.84 7.47,6.65 12.62,8.25c-4.22,9.3 -12.29,18.08 -20.35,24.19c-16.08,12.19 -37.44,16.48 -57.17,13.74l-14.21,-2.89c3.91,-2.71 8.02,-5.33 11.45,-8.65c0.66,-0.64 3.68,-4.5 4.1,-4.62c0.38,-0.11 1.76,0.14 2.22,0.18c2.37,0.19 4.72,0.61 7.11,0.7c7.63,0.29 15.24,-0.89 22.48,-3.33c5.71,-1.93 12.76,-5.31 17.1,-9.54c2.39,-2.33 4.67,-4.76 6.91,-7.24c1.76,-1.95 3.6,-4.1 5.19,-6.17c1.05,-1.35 1.79,-3.08 2.55,-4.62z" fill="#BACCCD" id="svg_19"/>
  <path d="m379.97,530.53c2.2,1.53 4.26,4.95 6.08,7.07c4,4.66 8.34,8.73 13.43,12.18c14.92,10.13 37.05,13.21 54.55,9.78c13.49,-2.64 27.06,-10.21 34.87,-21.75c4.52,3.95 8.42,6.69 14.1,8.78l-7.42,8.47c-6.01,6.31 -13.32,10.9 -21.21,14.5c-21.16,9.66 -45.63,9.04 -67.2,0.98l-11.69,-5.72c-5.68,-3.53 -9.97,-7.57 -14.68,-12.26c-3.34,2.28 -5.76,5.84 -8.88,8.47c-14.94,12.59 -36.62,16.51 -55.61,14.91c-11.99,-1.01 -23.83,-4.84 -34.06,-11.14c-3.66,-2.26 -7.51,-4.92 -10.29,-8.23l12.3,-7.12l10.56,5.29c17.29,7.14 39.35,7.94 56.75,0.55c5.5,-2.33 11.18,-5.55 15.54,-9.7c2.31,-2.2 4.24,-4.8 6.47,-7.09c2.4,-2.45 4.92,-4.25 6.23,-7.54l0.16,-0.43z" fill="#BACCCD" id="svg_20"/>
  <path d="m267.73,484c7.41,7.91 13.24,15.38 23.04,20.63c16.43,8.8 37.79,10.52 55.56,5.13c9.08,-2.75 16.48,-7.3 23.69,-13.35c1.74,-1.46 3.88,-3.02 5.33,-4.77c1.8,-2.17 3.09,-5.42 4.43,-7.92c7.21,8.7 14.64,15.92 24.97,20.91c3.89,1.87 8.22,3.05 11.88,5.34c3.74,2.33 7.04,5.71 10.67,8.29c12.06,8.58 33.32,4.81 47.05,4.41l-16.1,14c-17.31,3.19 -34.42,-1.34 -48.79,-11.19c-2.83,-2.05 -5.69,-4.53 -7.86,-7.29c-0.54,-0.7 -8.3,-3.16 -7.16,-3.12c1.14,0.04 2.17,0.48 1.75,0.49c-2.27,0.05 -4.77,-1.58 -6.85,-2.59l-0.46,-0.24c-3.24,-1.66 -6.24,-4.07 -8.8,-6.6l-4.55,4.71c-12.47,12.4 -31.9,17.69 -49.14,17.7c-17.24,0 -35.68,-4.33 -49.47,-15.16c-2.83,-2.23 -5.36,-4.99 -7.9,-7.53c-1.66,1.45 -2.97,3.36 -4.56,4.92c-7.42,7.34 -18.15,11.99 -28.66,11.84c-7.68,-0.12 -15.1,-2.22 -21.23,-6.98c-2.12,-1.65 -4,-3.71 -5.87,-5.63c12.27,1.31 24.19,0.58 35.58,-4.63c7.19,-3.28 11.69,-7.41 17.16,-12.95c2.43,-2.46 4.91,-4.59 6.11,-7.92l0.18,-0.5z" fill="#BACCCD" id="svg_21"/>
  <path d="m267.24,435.76c1.97,2.52 3.58,5.26 5.63,7.75c5.82,7.1 13.82,12.65 22.15,16.41c17.11,7.74 38.16,7.98 55.62,1.24c8.16,-3.15 13.4,-8.17 19.86,-13.79c1.95,-1.69 4.53,-3.4 6.08,-5.47c1.32,-1.76 2.16,-4.23 3.05,-6.23c2.56,4.45 5.38,8.66 8.98,12.35c6.25,6.41 14.5,11.08 22.51,14.93c1.68,0.81 3.4,1.44 5.17,2.04c0.44,0.15 1.71,0.4 2.01,0.67c0.52,0.46 1.37,3.23 1.71,4c2.9,6.57 7.92,12.39 14.41,15.65c9.31,4.68 20.57,5.4 30.43,2.04c8.29,-2.82 16.07,-8.19 19.98,-16.17c4.43,3.94 8,7.42 13.88,9.04c-0.77,1.61 -2.12,3.19 -3.19,4.63c-4.82,6.46 -11.41,11.86 -18.76,15.2c-13.22,6.02 -30.6,6.85 -44.2,1.45c-6.43,-2.56 -12.36,-6.58 -17.64,-11.01c-5.54,-5.11 -8.56,-9.82 -14.99,-16.83l-1.71,-0.93l-1.94,-1.42c-7.89,-4.68 -10.91,-6.77 -15.88,-13.21l-7.39,7.58c-14.38,12.65 -35.79,17.45 -54.57,16.1c-15.12,-1.09 -31.21,-6.27 -42.96,-16.1c-2.85,-2.39 -5.24,-5.26 -7.66,-8.08l-8.01,8.05c-13.78,12.07 -34.8,17.29 -52.82,15.91c-10.28,-0.78 -20.29,-3.83 -28.25,-10.61c-2.75,-2.34 -5.09,-5.16 -7.43,-7.9c9.37,2.96 19.41,3.72 29.18,3.81c12.08,0.11 23.84,-0.67 35.31,-4.79c3.34,-1.2 6.59,-2.55 9.59,-4.47c4.26,-2.72 8.27,-6.6 12.06,-9.96c2.32,-2.06 5.16,-4.24 7.04,-6.68c1.15,-1.51 1.94,-3.49 2.75,-5.2z" fill="#BACCCD" id="svg_22"/>
  <path d="m231.29,105.43c2.42,4.19 5.42,7.72 8.59,11.37c4.51,5.19 9.54,10.48 14.98,14.7c15.07,11.67 32.18,20.28 50.65,25.13c22.15,5.81 44.69,3.84 67.31,4.47c11.85,0.33 23.72,1.7 35.3,4.26c7.1,1.57 13.99,3.57 20.79,6.17l12.97,5.26c9.43,4.24 21.21,11.09 31.84,9.48c5.22,-0.79 10.47,-3.14 13.64,-7.49c2.06,-2.84 3.26,-6.3 2.6,-9.81c-0.3,-1.59 -1.13,-3.15 -2.14,-4.4c-4.46,-5.5 -7.56,-0.25 -10.98,-2.76c-1.29,-0.95 -2.56,-3.06 -2.81,-4.64c-0.43,-2.73 0.34,-4.57 2.04,-6.69c1.9,-2.38 4.31,-3.69 7.34,-3.99c3.95,-0.38 8.08,1.06 11.14,3.55c5.71,4.66 9.2,11.27 9.94,18.61c0.83,8.24 -2.04,16.39 -7.3,22.67c-5.13,6.13 -12.54,9.86 -20.56,10.38c-17.75,1.16 -32.92,-7.72 -48.74,-14.13c-7.72,-3.13 -15.57,-5.64 -23.74,-7.34c-23.63,-4.93 -47.29,-2.54 -71.14,-3.65c-20.68,-0.96 -42.43,-6.59 -60.7,-16.33c-6.99,-3.72 -14.38,-7.52 -20.4,-12.73l-0.54,-0.48l5.3,10.03c1.52,2.72 3.66,5.17 5.68,7.53c11.67,13.63 28.88,21.77 45.82,26.7l11.44,2.83c-1.01,0.83 -3.02,1.14 -4.3,1.57l-8.34,3.13l-32.11,14.07c-7.43,3.56 -17.02,7.66 -22.73,13.64l7.26,4.91c-5.02,5.28 -10.82,9.84 -16.23,14.7c-5.6,5.01 -10.95,10.47 -15.97,16.05c-3,3.34 -6.09,6.71 -8.42,10.57c3.75,1.38 6.51,3.01 9.64,5.5c-2.08,4.36 -4.7,8.2 -6.46,12.78c-4.14,10.75 -7.71,22.13 -9.77,33.48c-5.8,31.88 -2.3,66.32 10.79,96.02c-1.55,0.67 -3.4,0.97 -5.06,1.39c-3.23,0.81 -6.37,1.63 -9.67,2.18l-0.43,-0.85c-1.65,-3.38 -2.66,-7.32 -3.96,-10.87c-12.81,-35.08 -12.55,-74.52 -1.73,-110.03c1.92,-6.32 5.59,-11.87 7.74,-18.05c-0.92,-0.13 -1.81,-0.27 -2.64,-0.7c-1.79,-0.93 -3.22,-2.51 -3.71,-4.46c-1.45,-5.78 1.35,-10.21 4.01,-14.96c1.3,-2.31 2.7,-4.86 4.12,-7.05c1.42,-2.19 1.99,-2.73 3.17,-4.09c1.59,-1.83 3.52,-4.21 5.29,-5.91c4.61,-4.44 9.82,-8.22 13.84,-13.22c1.44,-1.78 1.65,-5.84 2.49,-8.13c0.74,-1.99 1.92,-3.9 3.03,-5.71c7.14,-11.66 26.55,-20.97 39.56,-24.08c-2.92,-2.12 -6.48,-3.62 -9.6,-5.51c-6.95,-4.2 -12.84,-9.64 -18.17,-15.74c-11.59,-13.26 -18.59,-31.26 -20.19,-48.76c-0.61,-6.79 -0.22,-13.79 0.23,-20.57z" fill="#BACCCD" id="svg_23"/>
  <path d="m573.99,242.59c9.57,0.14 18.43,1.15 27.63,3.88l-10.83,2.36c-6.26,1.64 -12.24,4.05 -17.8,7.4c-10.46,6.3 -19.31,14.96 -22.32,27.15c3.18,0.18 6.37,-0.18 9.59,0.05c11.92,0.86 21.77,6.51 30.9,13.87l-1.35,-0.13c-12.4,-1.19 -25.36,1.25 -36.32,7.18c-6.99,3.77 -14.84,9.95 -18.25,17.29c-1.05,2.26 -1.69,4.88 -2.41,7.28c14.04,4.19 26.91,16.35 34.91,28.33c10.89,16.32 14.96,34.82 13.91,54.28c-0.22,4.11 -0.38,8.41 -1.2,12.44l-0.11,0.48c9.96,-1.87 18.11,-4.82 24.43,-13.25c1.59,0.79 2.98,2.12 4.47,3.1c3.94,2.63 7.83,3.31 12.42,3.87c-3.79,5.32 -7.31,9.39 -13,12.76c-5.81,3.43 -12.93,5.59 -19.72,5.22c-4.22,-0.23 -8.09,-1.3 -12.17,-2.34c-4.85,14.1 -14.72,27.93 -27.6,35.86c-12.52,7.72 -25.74,8.31 -39.74,5.06c5.58,-1.58 10.8,-3.79 15.99,-6.37c8.29,-4.13 14.88,-8.43 21.26,-15.17c1.61,-1.71 3.45,-3.46 4.77,-5.4c1.81,-2.65 3.11,-5.68 4.82,-8.41c1.27,-2.01 2.82,-3.82 4.04,-5.86c1.4,-2.34 2.35,-5.02 3.21,-7.6c5.61,-16.86 4.03,-37.37 -3.95,-53.18c-10.8,-21.38 -33.26,-35.13 -56.98,-36.48c-4.95,-0.28 -11.22,1.77 -15.86,0.11c-2.14,-0.77 -4.01,-1.99 -4.9,-4.17c-0.74,-1.83 -0.47,-4.34 0.34,-6.11c1,-2.23 2.85,-3.58 5.11,-4.4c2.82,-1.02 6.05,-0.9 9.02,-0.88c6.96,0.06 14.77,0.43 21.2,3.36l0.46,0.21c0.71,-3.11 1.29,-6.38 2.54,-9.32c1.25,-2.93 3,-4.97 5.01,-7.37c1.85,-2.22 3.68,-4.69 5.84,-6.61c3.21,-2.87 6.96,-4.88 10.53,-7.22l-0.27,-0.54c-0.73,-0.02 -2.56,0.01 -3.03,-0.5c-2.34,-2.57 -3.03,-7.79 -2.83,-11.17c0.24,-4.09 1.2,-9 3.5,-12.44c2.44,-3.66 6.57,-6.72 9.85,-9.62c-5.34,-0.44 -11.59,1.24 -16.72,2.55c-17.93,4.6 -36.77,11.3 -51.4,23.05c-10.72,8.6 -21.12,20.48 -25.28,33.82c-1.02,3.28 -1.43,6.64 -1.8,10.05c-0.49,14.66 4.02,31.14 17.87,38.64c5.54,3.01 10.75,3.56 14.8,9c2.78,3.73 4.34,8.59 3.62,13.23c-1.06,6.9 -5.74,12.49 -11.26,16.48c-13.36,9.68 -33.08,10.18 -48.83,7.62c-28.52,-4.62 -54.18,-22.62 -70.86,-45.86c-11.07,-15.43 -18.6,-32.78 -19.27,-52c-0.22,-6.31 0.55,-12.83 1.62,-19.04c0.86,-5.02 2.98,-11.69 5.67,-16.04c3.57,-5.75 9.92,-11.46 15.47,-15.31c17.51,-12.13 38.4,-11.77 58.06,-5.49c8.71,2.78 17.39,6.49 26.42,8.07l-7.77,14.86c-8.45,-4.03 -17.19,-6.99 -26.29,-9.2c-7.02,-1.7 -15.25,-3.15 -22.5,-2.21c-11.79,1.52 -21.15,6.01 -28.4,15.66c-7.25,9.66 -7.92,24.48 -6.19,36c3.69,24.47 20.51,45.96 40.13,60.28c15.9,11.61 38.66,18.45 58.29,15.32c8.99,-1.43 15.86,-4.72 21.27,-12.22c-0.13,-0.81 -0.23,-0.94 -0.99,-1.39c-1.54,-0.91 -3.62,-1.31 -5.31,-1.9c-4.13,-1.44 -7.85,-3.56 -11.23,-6.34c-11.63,-9.54 -17.52,-23.83 -18.98,-38.53c-1.01,-10.26 0.67,-23.6 4.7,-33.17c0.88,-2.1 2.18,-3.79 3.36,-5.71c1.69,-2.79 3.72,-6.21 5.79,-8.74l0.72,0.44l1.66,2.27l-3.11,-1.96c2.29,-4.64 4.63,-6.69 6.13,-8.62c1.5,-1.93 7.33,-5.94 10.85,-8.69c2.95,-2.3 5.87,-4.76 9.01,-6.79c20.23,-13.14 45.27,-21.09 69.14,-23.79c8.81,-1 17.64,-1.14 26.5,-1.34z" fill="#BACCCD" id="svg_24"/>
 </g>
</svg>