<?xml version="1.0" standalone="no"?>
<!DOCTYPE svg PUBLIC "-//W3C//DTD SVG 20010904//EN"
 "http://www.w3.org/TR/2001/REC-SVG-20010904/DTD/svg10.dtd">
<svg version="1.0" xmlns="http://www.w3.org/2000/svg"
 width="743.000000pt" height="528.000000pt" viewBox="0 0 743.000000 528.000000"
 preserveAspectRatio="xMidYMid meet">
<metadata>
Created by potrace 1.16, written by Peter Selinger 2001-2019
</metadata>
<g transform="translate(0.000000,528.000000) scale(0.100000,-0.100000)"
fill="#000000" stroke="none">
<path d="M3550 4315 c-47 -7 -263 -38 -480 -69 -217 -31 -409 -63 -427 -71
-18 -8 -40 -29 -49 -46 -15 -30 -15 -41 1 -152 9 -66 13 -123 8 -126 -4 -4
-129 -24 -278 -45 -249 -34 -272 -39 -296 -63 -34 -31 -43 -75 -25 -117 19
-44 52 -66 101 -66 37 0 465 58 705 95 128 20 797 112 980 135 242 30 529 74
556 85 19 8 37 27 48 50 24 51 9 107 -37 136 -34 21 -51 21 -207 0 -236 -33
-330 -44 -334 -40 -2 2 -12 57 -21 123 -26 189 -42 201 -245 171z m42 -276 c3
-30 6 -54 5 -55 -2 -1 -542 -79 -715 -103 -48 -7 -53 -6 -57 13 -11 56 -13 96
-5 96 10 0 434 61 625 90 66 10 125 17 130 16 6 -2 13 -27 17 -57z"/>
<path d="M4170 3669 c-65 -11 -647 -93 -1260 -179 -523 -73 -690 -96 -793
-111 -84 -13 -117 -31 -136 -77 -11 -25 -7 -57 23 -208 19 -99 51 -264 71
-369 20 -104 44 -233 55 -285 11 -52 35 -180 55 -285 119 -625 126 -659 156
-717 43 -84 137 -154 241 -178 57 -13 1149 -13 1206 0 140 33 238 132 271 275
15 69 341 2027 341 2053 0 12 -14 37 -31 57 -29 33 -35 35 -88 34 -31 -1 -81
-6 -111 -10z m-13 -251 c-3 -13 -73 -432 -156 -933 -98 -588 -157 -922 -169
-944 -9 -19 -33 -42 -52 -53 -33 -17 -70 -18 -595 -18 -513 0 -563 1 -594 18
-56 28 -69 56 -100 217 -52 265 -99 505 -136 700 -60 315 -73 382 -110 573
-20 101 -34 187 -31 190 6 5 370 57 1301 187 187 26 392 55 455 65 63 10 132
18 154 19 35 1 38 -1 33 -21z"/>
<path d="M2702 3124 c-12 -8 -29 -29 -37 -45 -15 -28 -12 -57 40 -427 130
-924 135 -964 145 -982 16 -31 49 -52 89 -57 37 -5 44 -2 77 31 l37 37 -7 76
c-3 42 -26 218 -51 392 -25 174 -65 455 -89 624 -42 297 -44 309 -71 337 -23
24 -37 30 -70 30 -22 0 -51 -7 -63 -16z"/>
<path d="M3537 3116 c-14 -13 -29 -35 -31 -48 -3 -12 -33 -219 -66 -458 -34
-239 -74 -529 -90 -643 -39 -271 -39 -280 4 -323 24 -24 43 -34 66 -34 36 0
81 23 99 51 10 18 36 185 106 694 14 105 30 222 35 260 64 448 63 430 38 481
-23 49 -118 60 -161 20z"/>
</g>
</svg>
